<svg width="20" height="20" viewBox="0 0 20 20" fill="none" xmlns="http://www.w3.org/2000/svg">
<path d="M11.25 10C11.25 10.6903 10.6903 11.25 10 11.25C9.30967 11.25 8.75 10.6903 8.75 10C8.75 9.30967 9.30967 8.75 10 8.75C10.6903 8.75 11.25 9.30967 11.25 10Z" fill="currentColor"/>
<path d="M10 10V6.66667" stroke="currentColor" />
<path d="M10 10L12.9167 11.25" stroke="currentColor" />
<path d="M10 10L7.08334 11.25" stroke="currentColor" />
<path d="M3.75 5.83333V8.33333" stroke="currentColor"  stroke-linecap="round"/>
<path d="M3.75 11.6667V14.1667" stroke="currentColor"  stroke-linecap="round"/>
<path d="M18.3333 10C18.3333 13.9283 18.3333 15.8926 17.1129 17.1129C15.8926 18.3333 13.9283 18.3333 9.99999 18.3333C6.07161 18.3333 4.10743 18.3333 2.88705 17.1129C1.66666 15.8926 1.66666 13.9283 1.66666 10C1.66666 6.07163 1.66666 4.10744 2.88705 2.88706C4.10743 1.66667 6.07161 1.66667 9.99999 1.66667C13.9283 1.66667 15.8926 1.66667 17.1129 2.88706C17.9244 3.69851 18.1963 4.83879 18.2874 6.66667" stroke="currentColor"  stroke-linecap="round"/>
<path d="M9.99999 4.16667C7.25013 4.16667 5.8752 4.16667 5.02093 5.02094C4.16666 5.87521 4.16666 7.25014 4.16666 10C4.16666 12.7498 4.16666 14.1247 5.02093 14.9791C5.8752 15.8333 7.25013 15.8333 9.99999 15.8333C12.7498 15.8333 14.1247 15.8333 14.9791 14.9791C15.8333 14.1247 15.8333 12.7498 15.8333 10C15.8333 7.25014 15.8333 5.87521 14.9791 5.02094C14.4111 4.45293 13.6128 4.26259 12.3333 4.19881" stroke="currentColor"  stroke-linecap="round"/>
<path d="M8.33332 7.11261C8.82357 6.82899 9.39282 6.66667 9.99999 6.66667C11.8409 6.66667 13.3333 8.15905 13.3333 10C13.3333 11.8409 11.8409 13.3333 9.99999 13.3333C8.15904 13.3333 6.66666 11.8409 6.66666 10C6.66666 9.71225 6.70312 9.433 6.77167 9.16667" stroke="currentColor"  stroke-linecap="round"/>
</svg>
