<svg width="20" height="20" viewBox="0 0 20 20" fill="none" xmlns="http://www.w3.org/2000/svg">
<path d="M10 13C11.6569 13 13 11.6569 13 10C13 8.34315 11.6569 7 10 7C8.34315 7 7 8.34315 7 10C7 11.6569 8.34315 13 10 13Z" stroke="currentColor" />
<path d="M2.92441 8.91136C3.32538 9.14888 3.58338 9.55352 3.58338 9.99992C3.58337 10.4464 3.32537 10.851 2.92441 11.0886C2.65156 11.2502 2.47577 11.3794 2.35069 11.533C2.0767 11.8698 1.95578 12.2952 2.01453 12.7159C2.05858 13.0314 2.25626 13.3542 2.65162 13.9999C3.04699 14.6455 3.24467 14.9683 3.51247 15.1621C3.86955 15.4204 4.32084 15.5344 4.76708 15.479C4.97075 15.4538 5.17729 15.3748 5.46212 15.2329C5.88085 15.0242 6.3816 15.0159 6.79175 15.2392C7.20185 15.4625 7.44453 15.8754 7.46222 16.3216C7.47427 16.6252 7.50504 16.8334 7.58366 17.0123C7.7559 17.4043 8.08628 17.7158 8.50207 17.8782C8.81399 18 9.20931 18 10 18C10.7908 18 11.1861 18 11.498 17.8782C11.9138 17.7158 12.2442 17.4043 12.4165 17.0123C12.495 16.8334 12.5258 16.6252 12.5379 16.3217C12.5555 15.8754 12.7982 15.4625 13.2084 15.2392C13.6185 15.016 14.1192 15.0243 14.5379 15.233C14.8228 15.3749 15.0293 15.4538 15.233 15.4791C15.6792 15.5346 16.1305 15.4205 16.4876 15.1622C16.7554 14.9685 16.9531 14.6456 17.3485 14C17.5245 13.7126 17.6614 13.4891 17.7628 13.3018M17.0756 11.0886C16.6747 10.8511 16.4167 10.4465 16.4167 10.0001C16.4167 9.5536 16.6747 9.14888 17.0756 8.91136C17.3485 8.74976 17.5242 8.62056 17.6493 8.46688C17.9233 8.13022 18.0442 7.70474 17.9855 7.28402C17.9414 6.96848 17.7437 6.64566 17.3483 6.00004C16.953 5.35441 16.7553 5.0316 16.4875 4.83786C16.1304 4.57953 15.6791 4.46552 15.2329 4.5209C15.0292 4.54619 14.8227 4.62512 14.5379 4.76706C14.1191 4.97571 13.6184 4.98403 13.2083 4.76077C12.7982 4.53752 12.5555 4.12456 12.5379 3.67842C12.5258 3.37482 12.495 3.16668 12.4165 2.9877C12.2442 2.59566 11.9138 2.28418 11.498 2.12179C11.1861 2 10.7908 2 10 2C9.20931 2 8.81399 2 8.50207 2.12179C8.08628 2.28418 7.7559 2.59566 7.58366 2.9877C7.50504 3.16666 7.47427 3.37478 7.46222 3.67835C7.44452 4.12453 7.20184 4.53753 6.79171 4.76077C6.38159 4.98402 5.88088 4.97567 5.4622 4.76704C5.17733 4.62509 4.97078 4.54615 4.76709 4.52086C4.32085 4.46548 3.86956 4.57949 3.51248 4.83782C3.24468 5.03156 3.047 5.35438 2.65163 6C2.47562 6.28743 2.33879 6.51087 2.23725 6.69818" stroke="currentColor"  stroke-linecap="round"/>
</svg>
