<svg width="20" height="20" viewBox="0 0 20 20" fill="none" xmlns="http://www.w3.org/2000/svg">
<path d="M17.4986 8.33335C17.4885 6.52083 17.4081 5.53924 16.7677 4.89892C16.0355 4.16669 14.857 4.16669 12.5 4.16669H10C7.64297 4.16669 6.46447 4.16669 5.73223 4.89892C5 5.63115 5 6.80966 5 9.16669V13.3334C5 15.6904 5 16.8689 5.73223 17.6011C6.46447 18.3334 7.64297 18.3334 10 18.3334H12.5C14.857 18.3334 16.0355 18.3334 16.7677 17.6011C17.5 16.8689 17.5 15.6904 17.5 13.3334V12.5" stroke="currentColor" stroke-width="1.5" stroke-linecap="round"/>
<path d="M2.5 8.33335V13.3334C2.5 14.7141 3.61929 15.8334 5 15.8334M15 4.16669C15 2.78598 13.8807 1.66669 12.5 1.66669H9.16667C6.02397 1.66669 4.45262 1.66669 3.47631 2.643C2.93199 3.18731 2.69114 3.9166 2.58458 5.00002" stroke="currentColor" stroke-width="1.5" stroke-linecap="round"/>
</svg>
