<svg width="20" height="20" viewBox="0 0 20 20" fill="none" xmlns="http://www.w3.org/2000/svg">
<path d="M2.24113 5.58712C2.10516 5.26986 1.73773 5.12288 1.42047 5.25886C1.1032 5.39483 0.956224 5.76226 1.0922 6.07952L2.24113 5.58712ZM7.53454 11.4481C7.7228 11.1588 7.64087 10.7717 7.35154 10.5834C7.06222 10.3952 6.67507 10.4771 6.48681 10.7664L7.53454 11.4481ZM5.30947 12.5758C5.12121 12.8651 5.20314 13.2522 5.49247 13.4405C5.78179 13.6287 6.16894 13.5468 6.3572 13.2575L5.30947 12.5758ZM18.9078 6.07952C19.0437 5.76226 18.8968 5.39483 18.5795 5.25886C18.2622 5.12288 17.8948 5.26986 17.7588 5.58712L18.9078 6.07952ZM16.6414 10.966C16.8855 11.2101 17.2812 11.2101 17.5252 10.966C17.7693 10.7219 17.7693 10.3262 17.5252 10.0821L16.6414 10.966ZM9.375 13.75C9.375 14.0952 9.65483 14.375 10 14.375C10.3452 14.375 10.625 14.0952 10.625 13.75H9.375ZM13.6428 13.2575C13.8311 13.5468 14.2182 13.6287 14.5075 13.4405C14.7968 13.2522 14.8787 12.8651 14.6905 12.5758L13.6428 13.2575ZM4.60861 9.71599C4.85268 9.47191 4.85268 9.07616 4.60861 8.83207C4.36453 8.58799 3.9688 8.58799 3.72472 8.83207L4.60861 9.71599ZM2.47472 10.0821C2.23065 10.3262 2.23065 10.7219 2.47472 10.966C2.7188 11.2101 3.11453 11.2101 3.35861 10.966L2.47472 10.0821ZM10 11.0417C7.31342 11.0417 5.38444 9.70382 4.10383 8.32471C3.46371 7.63535 2.99437 6.94402 2.68549 6.42511C2.53141 6.16624 2.41822 5.95192 2.3445 5.80446C2.30766 5.73079 2.28074 5.67395 2.26356 5.63675C2.25497 5.61816 2.24882 5.60449 2.24509 5.5961C2.24322 5.59191 2.24179 5.58863 2.24113 5.58712C2.24112 5.58709 2.24116 5.58719 2.24113 5.58712C2.24122 5.58731 2.24113 5.58712 1.66667 5.83332C1.0922 6.07952 1.09207 6.07924 1.0922 6.07952C1.09225 6.07965 1.09262 6.08049 1.09272 6.08074C1.09293 6.08123 1.09319 6.08182 1.09348 6.08249C1.09406 6.08384 1.0948 6.08554 1.09569 6.08759C1.09748 6.09168 1.0999 6.09717 1.10294 6.10401C1.10902 6.1177 1.11762 6.13678 1.12877 6.16091C1.15106 6.20917 1.18355 6.27766 1.22647 6.36348C1.31224 6.53504 1.43995 6.77645 1.61138 7.06446C1.95354 7.63929 2.47379 8.40632 3.18783 9.17524C4.61556 10.7128 6.85324 12.2917 10 12.2917V11.0417ZM12.7604 10.5257C11.9517 10.844 11.0347 11.0417 10 11.0417V12.2917C11.1985 12.2917 12.2705 12.0618 13.2182 11.6888L12.7604 10.5257ZM6.48681 10.7664L5.30947 12.5758L6.3572 13.2575L7.53454 11.4481L6.48681 10.7664ZM18.3333 5.83332C17.7588 5.58712 17.7587 5.58724 17.7588 5.58712C17.7589 5.58699 17.7592 5.58623 17.7592 5.58632C17.7592 5.58649 17.7589 5.58709 17.7584 5.58812C17.7575 5.59018 17.7558 5.59395 17.7534 5.59936C17.7486 5.61018 17.7407 5.62756 17.7298 5.65103C17.7079 5.69796 17.6738 5.76911 17.6272 5.86055C17.5338 6.04355 17.3908 6.30691 17.1962 6.61932C16.8057 7.24596 16.2136 8.05996 15.4056 8.81832L16.2611 9.72974C17.1686 8.87791 17.8264 7.97155 18.2571 7.28037C18.473 6.93389 18.6333 6.63899 18.7407 6.42845C18.7944 6.32311 18.835 6.23868 18.8627 6.17921C18.8766 6.14948 18.8872 6.12597 18.8947 6.10919C18.8985 6.1008 18.9015 6.09409 18.9037 6.08912C18.9047 6.08664 18.9056 6.0846 18.9063 6.08299C18.9067 6.08219 18.9069 6.0815 18.9072 6.08092C18.9073 6.08063 18.9077 6.07976 18.9078 6.07952C18.9078 6.07958 18.9079 6.07941 18.9078 6.07952C18.9079 6.07938 18.9078 6.07952 18.3333 5.83332ZM15.4056 8.81832C14.6897 9.49016 13.8116 10.1119 12.7604 10.5257L13.2182 11.6888C14.4462 11.2055 15.4555 10.4858 16.2611 9.72974L15.4056 8.81832ZM15.3914 9.71599L16.6414 10.966L17.5252 10.0821L16.2752 8.83207L15.3914 9.71599ZM9.375 11.6667V13.75H10.625V11.6667H9.375ZM12.4655 11.4481L13.6428 13.2575L14.6905 12.5758L13.5132 10.7664L12.4655 11.4481ZM3.72472 8.83207L2.47472 10.0821L3.35861 10.966L4.60861 9.71599L3.72472 8.83207Z" fill="currentColor"/>
</svg>
