<svg width="40" height="40" viewBox="0 0 40 40" fill="none" xmlns="http://www.w3.org/2000/svg">
<path d="M27.5 12.5H22.5" stroke="currentColor" stroke-width="1.5" stroke-linecap="round"/>
<path d="M36.6667 33.3333H23.3333M3.33334 33.3333H16.6667" stroke="currentColor" stroke-width="1.5" stroke-linecap="round"/>
<path d="M20 30V25" stroke="currentColor" stroke-width="1.5" stroke-linecap="round"/>
<path d="M20 36.6667C21.8409 36.6667 23.3333 35.1743 23.3333 33.3333C23.3333 31.4924 21.8409 30 20 30C18.159 30 16.6667 31.4924 16.6667 33.3333C16.6667 35.1743 18.159 36.6667 20 36.6667Z" stroke="currentColor" stroke-width="1.5"/>
<path d="M8.33334 8.69549C8.33334 7.7394 8.33334 7.26137 8.41426 6.86317C8.77043 5.11025 10.247 3.73912 12.1348 3.40839C12.5636 3.33325 13.0784 3.33325 14.108 3.33325C14.5592 3.33325 14.7847 3.33325 15.0015 3.35207C15.9361 3.43324 16.8227 3.7742 17.5453 4.33047C17.7128 4.4595 17.8723 4.6076 18.1913 4.90382L18.8333 5.49992C19.785 6.38369 20.261 6.82555 20.8308 7.11997C21.1438 7.28168 21.4758 7.4094 21.8203 7.50059C22.4475 7.66659 23.1205 7.66659 24.4665 7.66659H24.9025C27.9735 7.66659 29.5092 7.66659 30.5072 8.50017C30.599 8.57685 30.6863 8.65798 30.769 8.74323C31.4998 9.49787 31.6357 10.5833 31.6608 12.4999M31.6565 18.4999C31.6147 21.1861 31.4002 22.7091 30.2998 23.7308C28.933 24.9999 26.7332 24.9999 22.3333 24.9999H17.6667C13.2669 24.9999 11.067 24.9999 9.70018 23.7308C8.33334 22.4616 8.33334 20.4188 8.33334 16.3333V14.1666" stroke="currentColor" stroke-width="1.5" stroke-linecap="round"/>
</svg>
