<svg width="20" height="20" viewBox="0 0 20 20" fill="none" xmlns="http://www.w3.org/2000/svg">
<path d="M18 10C18 13.7712 18 15.6569 16.8284 16.8284C15.6569 18 13.7712 18 10 18C6.22876 18 4.34314 18 3.17158 16.8284C2 15.6569 2 13.7712 2 10C2 6.22876 2 4.34314 3.17158 3.17158C4.34314 2 6.22876 2 10 2C13.7712 2 15.6569 2 16.8284 3.17158C17.6074 3.95057 17.8685 5.04524 17.9559 6.8" stroke="currentColor" stroke-linecap="round"/>
<path d="M13 10H10M10 10H7M10 10V7M10 10V13" stroke="currentColor" stroke-linecap="round"/>
</svg>
