<svg width="40" height="40" viewBox="0 0 40 40" fill="none" xmlns="http://www.w3.org/2000/svg">
<path d="M13.3333 20H15M26.6667 20H20" stroke="currentColor" stroke-width="1.5" stroke-linecap="round"/>
<path d="M26.6667 13.3333H25M20 13.3333H13.3333" stroke="currentColor" stroke-width="1.5" stroke-linecap="round"/>
<path d="M13.3333 26.6667H21.6667" stroke="currentColor" stroke-width="1.5" stroke-linecap="round"/>
<path d="M5 23.3333V16.6666C5 10.3812 5 7.23856 6.95262 5.28593C8.90525 3.33331 12.0479 3.33331 18.3333 3.33331H21.6667C27.952 3.33331 31.0948 3.33331 33.0473 5.28593C34.136 6.37458 34.6177 7.83313 34.8308 9.99998M35 16.6666V23.3333C35 29.6186 35 32.7615 33.0473 34.714C31.0948 36.6666 27.952 36.6666 21.6667 36.6666H18.3333C12.0479 36.6666 8.90525 36.6666 6.95262 34.714C5.86398 33.6253 5.38228 32.1668 5.16915 30" stroke="currentColor" stroke-width="1.5" stroke-linecap="round"/>
</svg>
