<svg width="40" height="40" viewBox="0 0 40 40" fill="none" xmlns="http://www.w3.org/2000/svg">
<path d="M6.66667 30V10" stroke="currentColor" stroke-width="1.5" stroke-linecap="round"/>
<path d="M33.3333 20V30" stroke="currentColor" stroke-width="1.5" stroke-linecap="round"/>
<path d="M20 16.6666C27.3638 16.6666 33.3333 13.6819 33.3333 9.99998C33.3333 6.31808 27.3638 3.33331 20 3.33331C12.6362 3.33331 6.66667 6.31808 6.66667 9.99998C6.66667 13.6819 12.6362 16.6666 20 16.6666Z" stroke="currentColor" stroke-width="1.5"/>
<path d="M33.3333 20C33.3333 23.6818 27.3638 26.6667 20 26.6667C12.6362 26.6667 6.66667 23.6818 6.66667 20" stroke="currentColor" stroke-width="1.5" stroke-linecap="round"/>
<path d="M33.3333 30C33.3333 33.6818 27.3638 36.6667 20 36.6667C12.6362 36.6667 6.66667 33.6818 6.66667 30" stroke="currentColor" stroke-width="1.5"/>
</svg>
