<svg width="20" height="20" viewBox="0 0 20 20" fill="none" xmlns="http://www.w3.org/2000/svg">
<path d="M7.49996 3.71633C8.25957 3.47471 9.09196 3.33331 9.99996 3.33331C13.4849 3.33331 15.8566 5.41628 17.2709 7.25359C17.9791 8.17375 18.3333 8.63381 18.3333 9.99998C18.3333 11.3661 17.9791 11.8262 17.2709 12.7464C15.8566 14.5836 13.4849 16.6666 9.99996 16.6666C6.51505 16.6666 4.14326 14.5836 2.72903 12.7464C2.02076 11.8262 1.66663 11.3661 1.66663 9.99998C1.66663 8.63381 2.02076 8.17375 2.72903 7.25359C3.13006 6.7326 3.60807 6.19185 4.16663 5.68445" stroke="currentColor" stroke-width="1.5" stroke-linecap="round"/>
<path d="M12.5 10C12.5 11.3807 11.3807 12.5 10 12.5C8.61925 12.5 7.5 11.3807 7.5 10C7.5 8.61925 8.61925 7.5 10 7.5C11.3807 7.5 12.5 8.61925 12.5 10Z" stroke="currentColor" stroke-width="1.5"/>
</svg>
