<svg width="40" height="40" viewBox="0 0 40 40" fill="none" xmlns="http://www.w3.org/2000/svg">
<path d="M36.6667 16.6667V15C36.6667 10.286 36.6667 7.92893 35.2022 6.46447C33.7377 5 31.3807 5 26.6667 5H13.3333C8.61928 5 6.26227 5 4.7978 6.46447C4.29813 6.96413 3.96895 7.5677 3.75208 8.33333M3.33333 15V16.6667C3.33333 21.3807 3.33333 23.7377 4.7978 25.2022C6.26227 26.6667 8.61928 26.6667 13.3333 26.6667H26.6667C31.3807 26.6667 33.7377 26.6667 35.2022 25.2022C35.7018 24.7025 36.031 24.099 36.2478 23.3333" stroke="currentColor" stroke-width="1.5" stroke-linecap="round"/>
<path d="M20 31.6667V27.5M20 31.6667L30 35M20 31.6667L10 35" stroke="currentColor" stroke-width="1.5" stroke-linecap="round"/>
</svg>
