<svg width="40" height="40" viewBox="0 0 40 40" fill="none" xmlns="http://www.w3.org/2000/svg">
<path d="M16.6667 23.3333C18.5077 23.3333 20 24.8256 20 26.6666C20 28.5076 18.5077 30 16.6667 30C14.8257 30 13.3333 28.5076 13.3333 26.6666C13.3333 24.8256 14.8257 23.3333 16.6667 23.3333Z" stroke="currentColor" stroke-width="1.5"/>
<path d="M20 13.3334C20 11.4924 21.4924 10 23.3333 10C25.1743 10 26.6667 11.4924 26.6667 13.3334C26.6667 15.1743 25.1743 16.6667 23.3333 16.6667C21.4924 16.6667 20 15.1743 20 13.3334Z" stroke="currentColor" stroke-width="1.5"/>
<path d="M23.3333 26.6667H31.6667" stroke="currentColor" stroke-width="1.5" stroke-linecap="round"/>
<path d="M16.6667 13.3333H8.33333" stroke="currentColor" stroke-width="1.5" stroke-linecap="round"/>
<path d="M8.33333 26.6667H10" stroke="currentColor" stroke-width="1.5" stroke-linecap="round"/>
<path d="M31.6667 13.3333H30" stroke="currentColor" stroke-width="1.5" stroke-linecap="round"/>
<path d="M36.6667 20C36.6667 27.8566 36.6667 31.7851 34.2258 34.2258C31.7852 36.6666 27.8567 36.6666 20 36.6666C12.1432 36.6666 8.21488 36.6666 5.77412 34.2258C3.33333 31.7851 3.33333 27.8566 3.33333 20C3.33333 12.1432 3.33333 8.21486 5.77412 5.7741C8.21488 3.33331 12.1432 3.33331 20 3.33331C27.8567 3.33331 31.7852 3.33331 34.2258 5.7741C35.8488 7.397 36.3927 9.67756 36.5748 13.3333" stroke="currentColor" stroke-width="1.5" stroke-linecap="round"/>
</svg>
