<svg width="460" height="98" viewBox="0 0 460 98" fill="none" xmlns="http://www.w3.org/2000/svg">
<path d="M0 2.82692C3.24129 2.10897 6.79771 1.57052 10.6693 1.21155C14.5408 0.762828 18.4123 0.538462 22.2839 0.538462C26.4255 0.538462 30.4771 0.942316 34.4387 1.75001C38.4903 2.46796 42.0918 3.94872 45.243 6.19231C48.3943 8.4359 50.9603 11.6218 52.9411 15.75C54.9219 19.7885 55.9123 25.0833 55.9123 31.6346C55.9123 37.5577 55.0569 42.5833 53.3463 46.7115C51.7256 50.8398 49.5197 54.2051 46.7286 56.8077C43.9375 59.4103 40.6962 61.2949 37.0047 62.4615C33.4033 63.6282 29.6668 64.2115 25.7953 64.2115C25.4351 64.2115 24.8499 64.2115 24.0396 64.2115C23.2293 64.2115 22.3739 64.2115 21.4736 64.2115C20.5732 64.1218 19.6728 64.0321 18.7725 63.9423C17.9622 63.8526 17.3769 63.7628 17.0168 63.6731V96.1154H0V2.82692ZM17.0168 48.4615C17.557 48.641 18.5474 48.8205 19.988 49C21.5186 49.0897 22.554 49.1346 23.0942 49.1346C25.075 49.1346 26.9658 48.8654 28.7665 48.3269C30.5672 47.7885 32.1428 46.891 33.4933 45.6346C34.9339 44.2885 36.0594 42.4936 36.8697 40.25C37.68 37.9167 38.0852 35 38.0852 31.5C38.0852 28.5385 37.68 26.0256 36.8697 23.9615C36.1494 21.8974 35.114 20.2821 33.7635 19.1154C32.5029 17.859 31.0174 16.9615 29.3067 16.4231C27.596 15.8846 25.7953 15.6154 23.9045 15.6154C21.1134 15.6154 18.8175 15.8397 17.0168 16.2885V48.4615ZM93.7446 74.8462H71.4607L65.9235 96.1154H49.0418L76.4577 1.21155H89.828L117.379 96.1154H99.5519L93.7446 74.8462ZM75.1072 60.8462H90.7734L85.3713 38.9039L83.2104 24.0962H82.6702L80.3743 39.0385L75.1072 60.8462ZM156.272 71.8846C156.272 69.0128 155.416 66.5898 153.705 64.6154C151.995 62.5513 149.834 60.6218 147.223 58.8269C144.702 57.0321 141.911 55.1923 138.85 53.3077C135.878 51.4231 133.087 49.2244 130.476 46.7115C127.955 44.1987 125.839 41.2372 124.129 37.8269C122.418 34.4167 121.563 30.2436 121.563 25.3077C121.563 20.7308 122.238 16.8718 123.588 13.7308C125.029 10.5 126.965 7.89744 129.396 5.92308C131.827 3.85897 134.708 2.37821 138.039 1.48078C141.371 0.493598 144.927 0 148.708 0C153.3 0 157.577 0.44872 161.539 1.34616C165.5 2.24359 168.786 3.45513 171.398 4.98077L166.13 19.9231C164.6 18.8462 162.304 17.859 159.243 16.9615C156.272 16.0641 153.03 15.6154 149.519 15.6154C146.007 15.6154 143.306 16.3333 141.416 17.7692C139.525 19.2051 138.579 21.3141 138.579 24.0962C138.579 26.609 139.435 28.8526 141.145 30.8269C142.856 32.7115 144.972 34.5513 147.493 36.3462C150.104 38.141 152.895 40.0256 155.866 42C158.928 43.8846 161.719 46.1282 164.24 48.7308C166.851 51.2436 169.012 54.25 170.722 57.75C172.433 61.1603 173.288 65.2436 173.288 70C173.288 74.7564 172.568 78.8846 171.127 82.3846C169.777 85.8846 167.796 88.8013 165.185 91.1346C162.664 93.3782 159.603 95.0833 156.001 96.25C152.4 97.4167 148.393 98 143.982 98C138.399 98 133.492 97.4615 129.261 96.3846C125.119 95.3077 121.923 94.0962 119.672 92.75L125.209 77.5385C127.01 78.6154 129.486 79.6923 132.637 80.7692C135.788 81.8462 139.165 82.3846 142.766 82.3846C151.77 82.3846 156.272 78.8846 156.272 71.8846ZM215.622 71.8846C215.622 69.0128 214.766 66.5898 213.056 64.6154C211.345 62.5513 209.184 60.6218 206.573 58.8269C204.052 57.0321 201.261 55.1923 198.2 53.3077C195.229 51.4231 192.437 49.2244 189.826 46.7115C187.305 44.1987 185.19 41.2372 183.479 37.8269C181.768 34.4167 180.913 30.2436 180.913 25.3077C180.913 20.7308 181.588 16.8718 182.939 13.7308C184.379 10.5 186.315 7.89744 188.746 5.92308C191.177 3.85897 194.058 2.37821 197.389 1.48078C200.721 0.493598 204.277 0 208.059 0C212.65 0 216.927 0.44872 220.889 1.34616C224.85 2.24359 228.137 3.45513 230.748 4.98077L225.481 19.9231C223.95 18.8462 221.654 17.859 218.593 16.9615C215.622 16.0641 212.38 15.6154 208.869 15.6154C205.358 15.6154 202.656 16.3333 200.766 17.7692C198.875 19.2051 197.93 21.3141 197.93 24.0962C197.93 26.609 198.785 28.8526 200.496 30.8269C202.206 32.7115 204.322 34.5513 206.843 36.3462C209.454 38.141 212.245 40.0256 215.216 42C218.278 43.8846 221.069 46.1282 223.59 48.7308C226.201 51.2436 228.362 54.25 230.072 57.75C231.783 61.1603 232.638 65.2436 232.638 70C232.638 74.7564 231.918 78.8846 230.478 82.3846C229.127 85.8846 227.146 88.8013 224.535 91.1346C222.014 93.3782 218.953 95.0833 215.352 96.25C211.75 97.4167 207.744 98 203.332 98C197.75 98 192.843 97.4615 188.611 96.3846C184.469 95.3077 181.273 94.0962 179.022 92.75L184.559 77.5385C186.36 78.6154 188.836 79.6923 191.987 80.7692C195.139 81.8462 198.515 82.3846 202.116 82.3846C211.12 82.3846 215.622 78.8846 215.622 71.8846Z" fill="var(--app-color)"/>
<path d="M302.387 47.5192L304.278 29.4808H303.602L298.605 45.6346L283.209 78.75H277.537L261.195 45.5L256.199 29.2115H255.388L257.954 47.3846V96.1154H241.883V1.88462H258.224L277.942 42.6731L281.183 54.3846H281.724L284.83 42.4038L303.332 1.88462H319.404V96.1154H302.387V47.5192ZM369.788 74.8462H347.504L341.967 96.1154H325.085L352.501 1.21155H365.871L393.422 96.1154H375.595L369.788 74.8462ZM351.15 60.8462H366.817L361.414 38.9039L359.254 24.0962H358.713L356.417 39.0385L351.15 60.8462ZM420.024 49.8077L413.812 33.25H413.136L415.297 49.5385V96.1154H399.226V1.21155H412.326L439.472 48.5962L445.279 64.8846H446.089L443.929 48.8654V1.88462H460V96.7885H446.9L420.024 49.8077Z" fill="var(--accent-color)"/>
</svg>
